<?xml version="1.0" standalone="no"?><!DOCTYPE svg PUBLIC "-//W3C//DTD SVG 1.1//EN" "http://www.w3.org/Graphics/SVG/1.1/DTD/svg11.dtd"><svg t="1707099208157" class="icon" viewBox="0 0 1024 1024" version="1.1" xmlns="http://www.w3.org/2000/svg" p-id="5102" xmlns:xlink="http://www.w3.org/1999/xlink" width="200" height="200"><path d="M516.845355 397.640416c-64.257489 0-116.127857 51.870368-116.127857 116.127857s51.870368 116.127857 116.127857 116.127857 116.127857-51.870368 116.127857-116.127857S581.102844 397.640416 516.845355 397.640416zM516.845355 707.316407c-106.838284 0-193.547111-86.708827-193.547111-193.547111s86.708827-193.547111 193.547111-193.547111c106.838284 0 193.547111 86.708827 193.547111 193.547111S623.683638 707.316407 516.845355 707.316407zM516.845355 223.448118c-189.216479 0-351.425861 115.059526-421.161109 278.989085-3.079128 7.237845-3.079128 15.424294 0 22.663162 69.736271 163.92956 231.94463 278.989085 421.161109 278.989085 189.216479 0 351.424838-115.059526 421.161109-278.989085 3.079128-7.237845 3.079128-15.424294 0-22.663162C868.270193 338.507644 706.061834 223.448118 516.845355 223.448118z" p-id="5103" fill="#d81e06"></path></svg>